# xmcd CD database file
#
# Track frame offsets:
#	150
#	9905
#	19952
#	34665
#	46617
#	56737
#	67332
#	80925
#	91200
#	102765
#	113285
#	123047
#	133515
#	144585
#	157517
#	165985
#	176250
#	187480
#	197655
#	206322
#	217512
#	227220
#	239697
#	250312
#	260897
#	270557
#
# Disc length: 3761 seconds
#
# Revision: 5
# Processed by: cddbd v1.5.2PL0 Copyright (c) Steve Scherf et al.
# Submitted via: CDex 1.51
#
DISCID=5d0eaf1a
DTITLE=Snooks Eaglin - The Complete Imperial Recordings
DYEAR=1963
DGENRE=Blues
TTITLE0=Yours Truly
TTITLE1=Nobody Knows (The Trouble I've Seen)
TTITLE2=That Certain Door
TTITLE3=By The Water
TTITLE4=If I Could
TTITLE5=Guess Who
TTITLE6=C.C. Rider
TTITLE7=Mama Talk To Your Daughter
TTITLE8=I've Been Walkin'
TTITLE9=My Head Is Spinnin'
TTITLE10=Would You
TTITLE11=Travelin' Mood
TTITLE12=Goin' To The River
TTITLE13=I'm Slippin' In
TTITLE14=Nothing Sweet As You
TTITLE15=Don't Slam That Door
TTITLE16=People Are Talkin'
TTITLE17=Long Gone
TTITLE18=Willy Lee
TTITLE19=Reality (Formerly Wake Up)
TTITLE20=If I Loved You Baby
TTITLE21=You Call Everybody Sweetheart But Me
TTITLE22=Little Eva
TTITLE23=Cover Girl
TTITLE24=Is It True
TTITLE25=Down Yonder (We Go Balling)
EXTD=YEAR: 1963
EXTT0=
EXTT1=
EXTT2=
EXTT3=
EXTT4=
EXTT5=
EXTT6=
EXTT7=
EXTT8=
EXTT9=
EXTT10=
EXTT11=
EXTT12=
EXTT13=
EXTT14=
EXTT15=
EXTT16=
EXTT17=
EXTT18=
EXTT19=
EXTT20=
EXTT21=
EXTT22=
EXTT23=
EXTT24=
EXTT25=
PLAYORDER=
